<svg xmlns="http://www.w3.org/2000/svg" xmlns:xlink="http://www.w3.org/1999/xlink" xmlns:serif="http://www.serif.com/" width="100%" height="100%" viewBox="0 0 602 177" xml:space="preserve" style="fill-rule:evenodd;clip-rule:evenodd;stroke-linejoin:round;stroke-miterlimit:2;">    <g id="Background">        <path d="M517.93,0L83.5,0C83.5,0 0,-1.75 0,87.75C0,177.25 83.5,176.25 83.5,176.25L517.93,176.25C519.44,176.25 601.62,174.84 601.62,88.12C601.63,18.4 539.4,0 517.93,0Z" style="fill:rgb(0,85,153);fill-rule:nonzero;"></path>        <path d="M594.37,87.25C594.37,165.94 520.53,167.25 520.53,167.25L137.75,167.25L137.75,7.25L520.53,7.25C539.46,7.25 594.37,24 594.37,87.25Z" style="fill:white;fill-rule:nonzero;"></path>    </g>    <path id="Preisvergleich" d="M394.59,149.09C394.59,149.09 385.22,149.09 385.22,138.88C385.22,128.1 395.13,128.57 395.13,128.57C395.13,128.57 400.6,128.2 403.22,131.66L403.22,128.57L412.34,128.57L412.34,150.47C412.34,150.47 412.84,158.28 398.68,158.28L387.88,158.28L387.88,153L398.57,153C398.57,153 402.57,153.25 402.57,149.94L402.57,146.38C402.57,146.38 401.25,149.09 394.59,149.09ZM364.29,150.07L364.29,128.79L373.21,128.79L373.21,132C373.21,132 375.21,128.26 378.91,128.26C378.91,128.26 381.91,128.26 383.5,129.42L380.66,135.26C380.66,135.26 373.88,132.6 373.88,140.45L373.88,150.11L364.29,150.07ZM506.19,150.05L506.19,144.34L494.38,144.34C494.38,144.34 489.54,144.47 489.54,139.5C489.54,134.53 492.54,133.78 494.13,133.78L504.82,133.78L504.82,127.78L494.25,127.78C494.25,127.78 480.06,127.53 480.06,138.78C480.06,150.03 491.93,150 494,150L506.19,150.05ZM276.88,150.03L276.88,145.48L288.88,145.48C288.88,145.48 292.5,145.71 292.5,143.6C292.5,143.6 292.76,142.2 289.74,141.83L282.09,140.51C282.09,140.51 276.18,139.36 276.18,134.51C276.18,129.66 281.75,128.51 281.75,128.51C283.557,128.077 285.412,127.869 287.27,127.89L295.77,127.89L295.77,132.13L287.77,132.13C287.77,132.13 284.77,132.07 284.77,133.79C284.77,133.79 284.58,135.37 288.43,135.5C290.882,135.712 293.319,136.066 295.73,136.56C298.141,137.054 299.81,137.71 300.67,140.15C301.299,141.757 301.299,143.543 300.67,145.15C299.58,147.64 296.2,150.03 288.5,150.03L276.88,150.03ZM174.06,149.94L174.06,120.63L193.31,120.63C193.31,120.63 202.87,120.63 202.87,129.69C202.87,138.75 193.18,139.06 193.18,139.06L184.75,139.06L184.75,150L174.06,149.94ZM458.75,150L458.75,145.1L447.18,145.1C444.731,145.294 442.555,143.439 442.36,140.99L442.36,140.88L461.26,140.88C461.26,140.88 463.35,127.52 446.76,127.75C446.76,127.75 432.64,127.28 432.64,138.95C432.64,150.62 446.22,149.95 446.22,149.95L458.75,150ZM207.67,149.94L207.67,128.67L216.59,128.67L216.59,131.84C216.59,131.84 218.54,128.1 222.29,128.1C222.29,128.1 225.29,128.1 226.88,129.26L224,135.1C224,135.1 217.22,132.44 217.22,140.29L217.22,150L207.67,149.94ZM357.47,150L357.47,145.08L346.21,145.08C346.21,145.08 342.12,145.5 341.49,140.83L359.94,140.83C359.94,140.83 361.94,127.36 345.79,127.59C345.79,127.59 332,127.12 332,138.89C332,150.66 345.26,149.95 345.26,149.95L357.47,150ZM418.56,120.57L428.18,120.57L428.18,149.94L418.56,149.94L418.56,120.57ZM511.75,149.94L511.75,120.63L521.14,120.63L521.14,131.17C521.14,131.17 523.77,128.05 529.31,128.05C529.31,128.05 537.52,127.69 537.61,134.91L537.61,149.91L528.16,149.91L528.16,137.66C528.161,137.63 528.161,137.599 528.161,137.569C528.161,135.911 526.818,134.537 525.16,134.5L524.93,134.5C524.93,134.5 521.24,134.08 521.1,139.1L521.1,149.94L511.75,149.94ZM465.88,128.71L475.51,128.71L475.51,149.9L465.88,149.9L465.88,128.71ZM260.88,128.71L270.51,128.71L270.51,149.9L260.88,149.9L260.88,128.71ZM302.15,128.55L312.65,149.9L321,149.9L331.59,128.47L322,128.47L316.94,141.65L312.19,128.53L302.15,128.55ZM253.85,149.79L253.85,144.91L242.58,144.91C242.58,144.91 238.49,145.33 237.86,140.69L256.31,140.69C256.31,140.69 258.31,127.33 242.16,127.56C242.16,127.56 228.38,127.09 228.38,138.76C228.38,150.43 241.64,149.76 241.64,149.76L253.85,149.79ZM398.638,143.496C396.371,143.45 394.53,141.571 394.53,139.3L394.53,139.08C394.53,139.08 394,134.33 398.53,134.33C403.06,134.33 402.61,139.16 402.61,139.16C402.61,139.16 402.909,143.481 398.638,143.496L398.67,143.5L398.61,143.5L398.638,143.496ZM442.24,136.86C442.394,134.337 444.597,132.387 447.12,132.54C447.231,132.532 447.341,132.527 447.452,132.527C449.71,132.527 451.61,134.289 451.78,136.54L451.78,136.85L442.24,136.86ZM341.38,136.75C341.503,134.25 343.649,132.289 346.15,132.39C348.519,132.266 350.572,134.111 350.7,136.48L350.7,136.74L341.38,136.75ZM237.75,136.67C237.878,134.179 240.028,132.232 242.52,132.35C244.862,132.208 246.911,134.009 247.07,136.35L247.07,136.63L237.75,136.67ZM184.63,133.1L184.63,126.88L187.85,126.88C187.85,126.88 192.54,126.66 192.54,129.88C192.54,133.1 187.88,133.1 187.88,133.1L184.63,133.1ZM260.88,120.71L270.51,120.71L270.51,126.13L260.88,126.13L260.88,120.71ZM465.88,120.71L475.51,120.71L475.51,126.13L465.88,126.13L465.88,120.71Z" style="fill:rgb(0,85,153);"></path>    <path id="eizhals" d="M425.5,106.63C425.5,106.63 403.5,108.88 403.5,90.63C403.5,90.63 403.29,79 414,76.09C424.71,73.18 440,70.76 445.46,67.8C445.46,67.8 446.54,59.97 437.96,60.88C437.96,60.88 427.88,59.76 426.54,67.63L405.37,65.26C405.37,65.26 405.5,48 431.79,47.72L441.87,47.72C441.87,47.72 466.95,45.72 467.33,69.1L467.33,106.64L446.63,106.64L446.63,99.06C446.63,99.06 441.63,106.42 425.5,106.63ZM521.58,106.63L521.58,94.42L549.91,94.42C549.91,94.42 558.49,95.04 558.49,89.42C558.49,89.42 559.12,85.67 551.95,84.67L533.83,81.12C533.83,81.12 519.83,78.04 519.83,65C519.83,51.96 533,48.84 533,48.84C537.261,47.679 541.664,47.117 546.08,47.17L566.21,47.17L566.21,58.75L547.21,58.75C547.21,58.75 540,58.58 540,63.21C540,63.21 539.54,67.46 548.67,67.79C548.67,67.79 561.88,69.21 565.96,70.62C565.96,70.62 575.63,73.7 577.67,80.25C579.091,84.573 579.045,89.246 577.54,93.54C574.96,100.21 566.96,106.62 548.71,106.62L521.58,106.63ZM228,49L250.13,49L250.13,106.63L228,106.63L228,49ZM483.25,27.42L505.58,27.42L505.58,106.63L483.25,106.63L483.25,27.42ZM209.13,106.63L209.13,93.63L182.25,93.63C182.25,93.63 172.5,94.76 171,82.38L215,82.38C215,82.38 219.88,46.75 181.25,47.38C181.25,47.38 148.38,46.13 148.38,77.26C148.38,108.39 180,106.51 180,106.51L209.13,106.63ZM330.13,106.63L330.13,27.46L352.32,27.46L352.32,56C352.32,56 358.55,47.58 371.63,47.58C371.63,47.58 391.05,46.58 391.26,66.12L391.26,106.58L368.92,106.58L368.92,73.46C368.92,73.46 369.05,64.92 361.34,64.92C361.34,64.92 352.63,63.79 352.34,77.34L352.34,106.63L330.13,106.63ZM263.88,64L263.88,49L317.44,49L317.44,61.63L288.31,90.75L319.31,90.75L319.31,106.62L261.56,106.62L261.56,91.56L289.06,64L263.88,64ZM445.67,78.84L445.67,84.84C445.67,84.84 445.42,94.92 433.3,94.92C433.3,94.92 426.3,95.8 426.05,89.34C426.05,89.34 424.88,84.34 435.84,81.69L445.67,78.84ZM170.75,71.64C170.75,71.64 171.25,60.17 182.13,60.17C193.01,60.17 193,71.67 193,71.67L170.75,71.64ZM228,27.38L250.13,27.38L250.13,42.13L228,42.13L228,27.38Z" style="fill:rgb(0,85,153);"></path>    <path id="G" d="M105.75,49L105.75,24.25L68.1,24.25C68.1,24.25 16.9,22.74 16.9,86C16.9,149.26 64.59,149.25 72.9,149.25L121.75,149.25L121.75,78.25L71.75,78.25L71.75,101.25L96.75,101.25L96.75,124.25L70.75,124.25C70.75,124.25 59.46,123.96 53.49,115.78C53.49,115.78 47.75,109.05 47.75,94.35C47.75,79.65 48,75.41 48,75.41C48,75.41 46.13,53.11 69.5,49.25L105.75,49Z" style="fill:white;fill-rule:nonzero;"></path></svg>