<?xml version="1.0" encoding="UTF-8" standalone="no"?>
<!DOCTYPE svg PUBLIC "-//W3C//DTD SVG 1.1//EN" "http://www.w3.org/Graphics/SVG/1.1/DTD/svg11.dtd">
<svg width="600" height="600" viewBox="0 0 600 600" version="1.1" xmlns="http://www.w3.org/2000/svg" xmlns:xlink="http://www.w3.org/1999/xlink" xml:space="preserve" xmlns:serif="http://www.serif.com/" style="fill-rule:evenodd;clip-rule:evenodd;stroke-linejoin:round;stroke-miterlimit:2;">
    <g transform="matrix(1,0,0,1,-100,-100)">
        <g transform="matrix(33.333333,0,0,33.333333,0,0)">
            <path d="M11,3C6.582,3 3,6.582 3,11C3,15.418 6.582,19 11,19C12.849,19 14.551,18.373 15.906,17.32L19.293,20.707C19.683,21.098 20.317,21.098 20.707,20.707C21.098,20.317 21.098,19.683 20.707,19.293L17.32,15.906C18.373,14.551 19,12.849 19,11C19,6.582 15.418,3 11,3ZM5,11C5,7.686 7.686,5 11,5C14.314,5 17,7.686 17,11C17,14.314 14.314,17 11,17C7.686,17 5,14.314 5,11Z" style="fill:currentColor;"/>
        </g>
    </g>
</svg>
